<svg width="55" height="57" viewBox="0 0 55 57" fill="none" xmlns="http://www.w3.org/2000/svg">
<g filter="url(#filter0_d_92_674)">
<g filter="url(#filter1_ii_92_674)">
<path d="M47.7352 19.0238L32.7248 6.57879C29.7915 4.15629 25.2082 4.13254 22.2977 6.55504L7.28733 19.0238C5.13317 20.805 3.82692 24.3675 4.28525 27.17L7.17275 45.0775C7.83733 49.0913 11.4352 52.25 15.354 52.25H39.6457C43.5186 52.25 47.1852 49.02 47.8498 45.0538L50.7373 27.1463C51.1498 24.3675 49.8436 20.805 47.7352 19.0238ZM29.2186 42.75C29.2186 43.7238 28.4394 44.5313 27.4998 44.5313C26.5602 44.5313 25.7811 43.7238 25.7811 42.75V35.625C25.7811 34.6513 26.5602 33.8438 27.4998 33.8438C28.4394 33.8438 29.2186 34.6513 29.2186 35.625V42.75Z" fill="#956B4C"/>
</g>
</g>
<defs>
<filter id="filter0_d_92_674" x="-2" y="-1" width="59" height="61" filterUnits="userSpaceOnUse" color-interpolation-filters="sRGB">
<feFlood flood-opacity="0" result="BackgroundImageFix"/>
<feColorMatrix in="SourceAlpha" type="matrix" values="0 0 0 0 0 0 0 0 0 0 0 0 0 0 0 0 0 0 127 0" result="hardAlpha"/>
<feOffset dy="1"/>
<feGaussianBlur stdDeviation="1"/>
<feComposite in2="hardAlpha" operator="out"/>
<feColorMatrix type="matrix" values="0 0 0 0 0.075 0 0 0 0 0.115385 0 0 0 0 0.0221893 0 0 0 0.25 0"/>
<feBlend mode="normal" in2="BackgroundImageFix" result="effect1_dropShadow_92_674"/>
<feBlend mode="normal" in="SourceGraphic" in2="effect1_dropShadow_92_674" result="shape"/>
</filter>
<filter id="filter1_ii_92_674" x="4.19385" y="4.75" width="46.6196" height="47.5" filterUnits="userSpaceOnUse" color-interpolation-filters="sRGB">
<feFlood flood-opacity="0" result="BackgroundImageFix"/>
<feBlend mode="normal" in="SourceGraphic" in2="BackgroundImageFix" result="shape"/>
<feColorMatrix in="SourceAlpha" type="matrix" values="0 0 0 0 0 0 0 0 0 0 0 0 0 0 0 0 0 0 127 0" result="hardAlpha"/>
<feOffset dx="-1" dy="-2"/>
<feComposite in2="hardAlpha" operator="arithmetic" k2="-1" k3="1"/>
<feColorMatrix type="matrix" values="0 0 0 0 0.435294 0 0 0 0 0.266667 0 0 0 0 0.145098 0 0 0 1 0"/>
<feBlend mode="normal" in2="shape" result="effect1_innerShadow_92_674"/>
<feColorMatrix in="SourceAlpha" type="matrix" values="0 0 0 0 0 0 0 0 0 0 0 0 0 0 0 0 0 0 127 0" result="hardAlpha"/>
<feOffset dx="-0.5" dy="-1"/>
<feComposite in2="hardAlpha" operator="arithmetic" k2="-1" k3="1"/>
<feColorMatrix type="matrix" values="0 0 0 0 0.270588 0 0 0 0 0.184314 0 0 0 0 0.121569 0 0 0 1 0"/>
<feBlend mode="normal" in2="effect1_innerShadow_92_674" result="effect2_innerShadow_92_674"/>
</filter>
</defs>
</svg>
