<svg width="50" height="59" viewBox="0 0 50 59" fill="none" xmlns="http://www.w3.org/2000/svg">
<g style="mix-blend-mode:hard-light">
<path d="M5.34479 17.6641C5.30618 17.6591 5.26881 17.6534 5.2326 17.6468C3.86052 17.4001 3.47039 15.6067 3.47436 14.2126C3.47938 12.4501 3.8104 10.3542 4.41081 8.3608C4.69015 7.43339 5.13185 6.55997 5.76872 5.83022C6.13666 5.40861 6.4473 5.09256 6.4473 5.09256L5.96798 10.8244C5.96798 10.8244 5.73803 12.5951 6.12324 13.9933C6.38022 14.9261 7.0921 15.8249 6.91817 16.7767C6.81078 17.3644 6.4235 17.8042 5.34479 17.6641Z" fill="#54653E"/>
<path d="M18.3537 20.006C18.8316 20.0681 19.1669 19.9915 19.471 19.8377C20.1832 19.4774 20.6919 18.7947 20.961 18.0433C21.7417 15.8628 22.037 12.7101 21.6867 9.81639C21.3537 8.87735 20.5422 7.57546 20.5422 7.57546L19.5199 13.2368C19.5199 13.2368 19.2887 15.0171 18.5077 16.265C17.9833 17.1028 16.992 17.7732 16.9378 18.7601C16.9058 19.3439 17.2044 19.8568 18.3537 20.006Z" fill="#54653E"/>
<path d="M12.6652 16.3329C11.9665 16.2422 11.7741 15.7337 11.6435 14.7497C11.4647 12.1476 12.2817 9.83601 12.9678 6.54038C13.232 5.27155 14.4971 2.22599 14.4971 2.22599L14.438 9.14897C14.438 9.14897 14.7232 11.926 14.4762 13.8281C14.3528 14.7791 14.1881 16.0472 12.6652 16.3329Z" fill="#54653E"/>
<path d="M2.46361 29.0557C2.86015 26.0021 3.56553 23.9694 5.44935 21.9261C6.3244 20.9769 6.97139 20.4256 7.5438 20.0819C9.3977 18.9688 11.8526 19.0852 13.7955 20.0347C15.7435 20.9866 17.2596 22.6294 18.5029 24.6838C19.3567 26.0946 19.9769 27.7235 19.6994 29.3491C19.5697 30.1083 19.3125 30.7868 18.9774 31.3968C18.2764 32.6725 17.0966 33.8241 15.6583 34.0479C14.3827 34.2464 13.2749 33.3214 12.1143 32.7559C9.03194 31.2541 7.29728 32.952 5.80822 32.7587C4.07189 32.5332 2.43994 31.504 2.46361 29.0557Z" fill="#54653E"/>
</g>
<g style="mix-blend-mode:multiply">
<path d="M4.34625 16.6641C4.30765 16.6591 4.27028 16.6534 4.23407 16.6468C2.86199 16.4001 2.47186 14.6067 2.47583 13.2126C2.48084 11.4501 2.81187 9.35415 3.41228 7.3608C3.69162 6.43339 4.13332 5.55997 4.77018 4.83022C5.13813 4.40861 5.44876 4.09256 5.44876 4.09256L4.96945 9.82438C4.96945 9.82438 4.7395 11.5951 5.1247 12.9933C5.38168 13.9261 6.09357 14.8249 5.91964 15.7767C5.81224 16.3644 5.42497 16.8042 4.34625 16.6641Z" fill="#956B4C"/>
<path d="M17.3552 19.006C17.833 19.0681 18.1684 18.9915 18.4725 18.8377C19.1847 18.4774 19.6934 17.7947 19.9625 17.0433C20.7432 14.8628 21.0384 11.7101 20.6882 8.81639C20.3551 7.87735 19.5437 6.57546 19.5437 6.57546L18.5214 12.2368C18.5214 12.2368 18.2902 14.0171 17.5091 15.265C16.9848 16.1028 15.9935 16.7732 15.9393 17.7601C15.9072 18.3439 16.2059 18.8568 17.3552 19.006Z" fill="#956B4C"/>
<path d="M11.6666 15.3329C10.9679 15.2422 10.7756 14.7337 10.645 13.7497C10.4661 11.1476 11.2831 8.83601 11.9693 5.54038C12.2335 4.27155 13.4986 1.22599 13.4986 1.22599L13.4395 8.14897C13.4395 8.14897 13.7247 10.926 13.4777 12.8281C13.3542 13.7791 13.1895 15.0472 11.6666 15.3329Z" fill="#956B4C"/>
<path d="M1.46508 28.0557C1.86162 25.0021 2.56699 22.9694 4.45081 20.9261C5.32586 19.9769 5.97286 19.4256 6.54526 19.0819C8.39916 17.9688 10.8541 18.0852 12.7969 19.0347C14.7449 19.9866 16.2611 21.6294 17.5044 23.6838C18.3582 25.0946 18.9784 26.7235 18.7008 28.3491C18.5712 29.1083 18.314 29.7868 17.9788 30.3968C17.2778 31.6725 16.0981 32.8241 14.6598 33.0479C13.3841 33.2464 12.2764 32.3214 11.1158 31.7559C8.03341 30.2541 6.29874 31.952 4.80968 31.7587C3.07336 31.5332 1.44141 30.504 1.46508 28.0557Z" fill="#956B4C"/>
</g>
<g style="mix-blend-mode:hard-light">
<path d="M27.2392 37.1422C27.2065 37.121 27.1754 37.0996 27.1455 37.078C26.0158 36.2613 26.4412 34.4758 27.0487 33.2211C27.8168 31.6348 29.0232 29.8891 30.428 28.3527C31.0815 27.6378 31.858 27.042 32.7482 26.6602C33.2624 26.4396 33.6793 26.2894 33.6793 26.2894L30.7641 31.2477C30.7641 31.2477 29.7897 32.744 29.5311 34.1711C29.3586 35.1231 29.6108 36.2416 29.0417 37.024C28.6903 37.5072 28.1507 37.7358 27.2392 37.1422Z" fill="#54653E"/>
<path d="M37.9484 44.889C38.3522 45.152 38.6876 45.2283 39.0283 45.2214C39.8263 45.2052 40.5806 44.8103 41.1486 44.2496C42.7969 42.6226 44.4289 39.9091 45.3669 37.1493C45.4736 36.1587 45.3063 34.6337 45.3063 34.6337L41.9322 39.2933C41.9322 39.2933 40.9525 40.7977 39.7079 41.584C38.8723 42.1119 37.6885 42.2867 37.2121 43.1526C36.9303 43.6649 36.9772 44.2566 37.9484 44.889Z" fill="#54653E"/>
<path d="M34.413 39.1146C33.8226 38.7301 33.8695 38.1885 34.1781 37.245C35.1443 34.8223 36.8821 33.0929 38.9283 30.4199C39.7161 29.3908 42.1758 27.194 42.1758 27.194L39.1232 33.4079C39.1232 33.4079 38.1771 36.0344 37.1305 37.6417C36.6072 38.4453 35.9094 39.5168 34.413 39.1146Z" fill="#54653E"/>
<path d="M19.7068 46.1603C21.3871 43.5799 22.9035 42.0535 25.4866 41.028C26.6865 40.5517 27.5084 40.3351 28.1732 40.2733C30.3264 40.0732 32.4885 41.2418 33.8282 42.9392C35.1714 44.6411 35.8262 46.7786 36.0567 49.1688C36.215 50.8103 36.0683 52.547 35.1139 53.8919C34.6681 54.52 34.1423 55.0201 33.576 55.4247C32.3915 56.2707 30.8293 56.7975 29.4361 56.3761C28.2003 56.0023 27.6027 54.6888 26.8016 53.6763C24.6742 50.9873 22.3752 51.7661 21.1169 50.9467C19.6497 49.9912 18.6247 48.3566 19.7068 46.1603Z" fill="#54653E"/>
</g>
<path d="M26.0116 35.7658C25.979 35.7445 25.9478 35.7231 25.918 35.7016C24.7882 34.8848 25.2136 33.0994 25.8212 31.8446C26.5893 30.2583 27.7957 28.5127 29.2004 26.9762C29.854 26.2614 30.6305 25.6655 31.5206 25.2838C32.0349 25.0632 32.4518 24.9129 32.4518 24.9129L29.5365 29.8712C29.5365 29.8712 28.5621 31.3675 28.3036 32.7946C28.131 33.7466 28.3832 34.8651 27.8141 35.6476C27.4628 36.1307 26.9231 36.3594 26.0116 35.7658Z" fill="#956B4C" fill-opacity="0.5"/>
<path d="M36.7209 43.5126C37.1246 43.7755 37.4601 43.8518 37.8008 43.8449C38.5988 43.8287 39.353 43.4338 39.9211 42.8732C41.5694 41.2462 43.2014 38.5326 44.1394 35.7728C44.246 34.7822 44.0787 33.2573 44.0787 33.2573L40.7046 37.9168C40.7046 37.9168 39.725 39.4212 38.4804 40.2076C37.6448 40.7355 36.4609 40.9102 35.9845 41.7762C35.7027 42.2885 35.7497 42.8801 36.7209 43.5126Z" fill="#956B4C" fill-opacity="0.5"/>
<path d="M33.1855 37.7381C32.595 37.3537 32.642 36.812 32.9506 35.8685C33.9167 33.4458 35.6545 31.7164 37.7008 29.0434C38.4886 28.0143 40.9482 25.8175 40.9482 25.8175L37.8957 32.0314C37.8957 32.0314 36.9496 34.6579 35.9029 36.2652C35.3796 37.0689 34.6818 38.1404 33.1855 37.7381Z" fill="#956B4C" fill-opacity="0.5"/>
<path d="M18.4792 44.7838C20.1596 42.2035 21.676 40.677 24.2591 39.6515C25.4589 39.1752 26.2809 38.9587 26.9457 38.8969C29.0988 38.6968 31.261 39.8653 32.6007 41.5628C33.9439 43.2647 34.5987 45.4021 34.8292 47.7923C34.9875 49.4338 34.8407 51.1706 33.8863 52.5154C33.4406 53.1435 32.9148 53.6436 32.3484 54.0482C31.164 54.8942 29.6018 55.421 28.2085 54.9996C26.9728 54.6259 26.3751 53.3123 25.5741 52.2998C23.4467 49.6108 21.1476 50.3896 19.8894 49.5702C18.4221 48.6148 17.3972 46.9801 18.4792 44.7838Z" fill="#956B4C" fill-opacity="0.5"/>
</svg>
